<?xml version="1.0" encoding="UTF-8"?>
<!DOCTYPE svg PUBLIC "-//W3C//DTD SVG 1.1//EN" "http://www.w3.org/Graphics/SVG/1.1/DTD/svg11.dtd">
<!-- Creator: CorelDRAW X6 -->
<svg xmlns="http://www.w3.org/2000/svg" xml:space="preserve" width="29px" height="22px" version="1.1" style="shape-rendering:geometricPrecision; text-rendering:geometricPrecision; image-rendering:optimizeQuality; fill-rule:evenodd; clip-rule:evenodd"
viewBox="0 0 29700 21000"
 xmlns:xlink="http://www.w3.org/1999/xlink">
 <defs>
  <style type="text/css">
   <![CDATA[
    .fil0 {fill:white}
   ]]>
  </style>
 </defs>
 <g id="">
  <metadata id="CorelCorpID_0Corel-Layer"/>
  <g id="_1077369152">
   <path class="fil0" d="M1568 3187l5379 0c16,189 3029,9943 3364,11150l364 1173c36,131 111,285 114,427l13347 0c112,0 193,-442 260,-651l647 -2113c282,-884 569,-1975 861,-2839 294,-869 547,-1902 861,-2839l745 -2471c36,-128 95,-261 97,-386l-16592 0 626 2106 13120 0 -1981 6585c-38,117 -122,358 -125,473l-10302 0c-3,-154 -175,-655 -224,-800 -261,-772 -480,-1658 -725,-2405 -87,-265 -162,-530 -242,-782 -250,-785 -480,-1652 -726,-2405l-967 -3188c-82,-275 -145,-519 -235,-790l-664 -2181c-22,-86 -19,-170 -115,-170l-6887 0 0 2106z"/>
   <path class="fil0" d="M12582 9591l9847 0c107,0 124,-212 160,-324 71,-220 321,-996 324,-1128l-10843 0 338 1113c35,110 56,338 174,338z"/>
   <path class="fil0" d="M13379 12436l8253 0c59,-254 141,-463 217,-722 48,-164 198,-589 209,-730l-9107 0 427 1451z"/>
   <path class="fil0" d="M11728 18498c0,980 853,1878 1793,1878 608,0 1063,-140 1459,-533 671,-667 754,-1770 204,-2496 -1118,-1478 -3456,-712 -3456,1151z"/>
   <path class="fil0" d="M19469 18328c0,394 -5,616 180,987 291,583 892,1062 1642,1062 515,0 834,-85 1220,-374 246,-184 489,-467 614,-781 216,-540 205,-1167 -99,-1691 -181,-311 -386,-515 -694,-701 -156,-94 -328,-156 -506,-206 -727,-202 -1494,90 -1963,674 -179,223 -394,637 -394,1028z"/>
  </g>
 </g>
</svg>
