<?xml version="1.0" encoding="UTF-8"?>
<!DOCTYPE svg PUBLIC "-//W3C//DTD SVG 1.1//EN" "http://www.w3.org/Graphics/SVG/1.1/DTD/svg11.dtd">
<!-- Creator: CorelDRAW 2017 -->
<svg xmlns="http://www.w3.org/2000/svg" xml:space="preserve" width="19.069mm" height="19.07mm" version="1.1" style="shape-rendering:geometricPrecision; text-rendering:geometricPrecision; image-rendering:optimizeQuality; fill-rule:evenodd; clip-rule:evenodd"
viewBox="0 0 1907 1907"
 xmlns:xlink="http://www.w3.org/1999/xlink">
 <defs>
  <style type="text/css">
   <![CDATA[
    .fil0 {fill:#883F5F}
   ]]>
  </style>
 </defs>
 <g id="">
  <metadata id="CorelCorpID_0Corel-Layer"/>
  <path class="fil0" d="M156 973l0 -39c0,-124 40,-255 88,-346 15,-29 37,-64 55,-90 14,-20 28,-36 42,-55l46 -51c17,-17 32,-31 50,-47 4,-4 9,-7 13,-10 40,-31 53,-41 101,-70 107,-64 254,-108 377,-108 89,0 134,2 219,23 52,13 98,31 143,51 70,31 132,76 190,124 5,4 8,8 13,12l37 35c17,17 62,71 76,93 40,60 76,123 99,191 61,182 61,350 0,533l-20 51c-3,7 -5,11 -8,17 -10,23 -22,43 -33,64 -14,25 -40,64 -58,87 -16,21 -26,33 -45,52l-23 25c-4,4 -7,7 -12,12 -25,25 -65,56 -93,77 -31,23 -90,57 -123,71l-68 28c-64,25 -172,46 -245,46 -88,0 -132,-2 -217,-23 -48,-12 -66,-19 -109,-36 -34,-14 -66,-30 -97,-48 -5,-3 -10,-5 -15,-9l-58 -39c-6,-4 -9,-7 -14,-11l-78 -68c-4,-4 -7,-7 -12,-12l-34 -39c-45,-58 -59,-74 -97,-145 -53,-98 -89,-238 -89,-348zm784 -973c-3,1 -24,0 -29,0 -28,0 -56,3 -83,7 -36,5 -68,10 -101,19 -16,4 -31,7 -47,13 -16,5 -30,9 -45,14 -89,34 -119,50 -200,98 -36,21 -72,50 -103,77 -6,5 -10,8 -15,13 -6,6 -10,9 -16,14l-87 93 -52 69c-4,6 -8,11 -12,17l-44 75c-12,19 -20,41 -29,62 -40,89 -63,185 -75,282 -6,46 -4,96 -4,141 0,28 4,56 7,83 6,51 16,101 31,148 31,96 59,159 113,244 4,7 7,12 12,19 5,6 8,12 13,18 4,6 7,11 12,17 17,22 34,46 53,65 3,3 5,4 7,7 3,4 4,5 7,9l45 45c6,6 10,8 16,14 6,6 9,8 15,13 15,15 32,27 50,40 12,9 24,16 36,25 22,17 49,31 73,45l39 20c14,7 28,13 42,19 55,25 114,44 180,58 41,9 112,21 157,21 21,0 42,3 58,0 9,-1 19,-1 28,0 50,0 139,-15 184,-26 89,-22 176,-55 255,-103 32,-19 61,-37 90,-59l126 -112c34,-34 64,-78 93,-117 17,-22 31,-49 45,-73 4,-6 6,-12 10,-19 35,-59 73,-175 88,-242 7,-33 18,-94 19,-128 0,-12 2,-17 2,-29 0,-19 2,-45 0,-58 -1,-9 -1,-19 0,-28 0,-50 -15,-139 -26,-184 -12,-47 -26,-90 -43,-134 -11,-29 -23,-56 -38,-82l-94 -145c-78,-102 -178,-183 -289,-248 -66,-38 -138,-64 -212,-86 -56,-16 -149,-33 -206,-33l-57 0z"/>
  <path class="fil0" d="M852 1159l203 0c0,-19 2,-31 2,-50l7 -149c0,-10 2,-12 2,-23 0,-10 0,-17 1,-26l11 -224c1,-8 0,-18 0,-27l7 -149c1,-14 2,-35 3,-49l2 -50c0,-17 2,-33 2,-52l-278 0 3 74c1,9 0,18 0,27 1,14 2,35 3,49l13 274c0,12 2,15 2,25 0,19 2,32 2,50l10 198c1,8 1,16 1,24 0,10 2,14 2,25 0,19 2,32 2,52z"/>
  <path class="fil0" d="M795 1403c0,36 7,71 27,99l17 22c4,4 6,5 10,8 33,26 60,36 107,36 48,0 86,-20 110,-44 46,-46 56,-123 32,-184 -22,-54 -74,-93 -133,-93 -42,0 -73,3 -108,28 -37,27 -63,72 -63,128z"/>
 </g>
</svg>
