<?xml version="1.0" encoding="UTF-8" standalone="no"?>
<!-- Created with Inkscape (http://www.inkscape.org/) -->

<svg
   xmlns:dc="http://purl.org/dc/elements/1.1/"
   xmlns:cc="http://creativecommons.org/ns#"
   xmlns:rdf="http://www.w3.org/1999/02/22-rdf-syntax-ns#"
   xmlns:svg="http://www.w3.org/2000/svg"
   xmlns="http://www.w3.org/2000/svg"
   xmlns:sodipodi="http://sodipodi.sourceforge.net/DTD/sodipodi-0.dtd"
   xmlns:inkscape="http://www.inkscape.org/namespaces/inkscape"
   width="61.171665mm"
   height="12.673541mm"
   viewBox="0 0 61.171665 12.673541"
   version="1.1"
   id="svg82"
   inkscape:version="0.92.1 r15371"
   sodipodi:docname="g2footer.svg">
  <defs
     id="defs76" />
  <sodipodi:namedview
     id="base"
     pagecolor="#ffffff"
     bordercolor="#666666"
     borderopacity="1.0"
     inkscape:pageopacity="0.0"
     inkscape:pageshadow="2"
     inkscape:zoom="0.35"
     inkscape:cx="224.17143"
     inkscape:cy="-67.478577"
     inkscape:document-units="mm"
     inkscape:current-layer="layer1"
     showgrid="false"
     inkscape:window-width="1920"
     inkscape:window-height="1017"
     inkscape:window-x="-8"
     inkscape:window-y="-8"
     inkscape:window-maximized="1" />
  <metadata
     id="metadata79">
    <rdf:RDF>
      <cc:Work
         rdf:about="">
        <dc:format>image/svg+xml</dc:format>
        <dc:type
           rdf:resource="http://purl.org/dc/dcmitype/StillImage" />
        <dc:title></dc:title>
      </cc:Work>
    </rdf:RDF>
  </metadata>
  <g
     inkscape:label="Layer 1"
     inkscape:groupmode="layer"
     id="layer1"
     transform="translate(-46.52131,-118.30608)">
    <g
       id="g148"
       transform="matrix(0.26458333,0,0,0.26458333,45.013185,116.79796)">
      <polygon
         id="polygon86"
         points="29.7,39.5 19.8,29.7 29.7,53.6 53.6,29.7 "
         class="st0"
         style="fill:#e74011" />
      <polygon
         id="polygon88"
         points="29.7,19.8 5.7,29.7 29.7,53.6 19.8,29.7 "
         class="st1"
         style="fill:#f68b00" />
      <polygon
         id="polygon90"
         points="29.7,5.7 5.7,29.7 29.7,19.8 39.5,29.7 "
         class="st2"
         style="fill:#056aab" />
      <polygon
         id="polygon92"
         points="53.6,29.7 29.7,5.7 39.5,29.7 29.7,39.5 "
         class="st3"
         style="fill:#26a2dc" />
      <g
         id="g120">
        <g
           id="g110">
          <path
             id="path94"
             d="M 103.8,32.3 H 115 c 4.2,0 7.5,-3.4 7.5,-7.5 0,-4.2 -3.4,-7.5 -7.5,-7.5 h -13.3 c -2.9,0 -5.3,2.4 -5.3,5.3 h 18.2 c 1.2,0 2.2,0.9 2.3,2.2 0,1.2 -1,2.3 -2.2,2.3 L 103,27 c -3.9,0 -7.1,3.2 -7.1,7.1 v 8 h 19.9 l 2.8,-5.3 h -17.1 v -2.1 c 0,-1.4 1,-2.4 2.3,-2.4 z"
             class="st4"
             inkscape:connector-curvature="0"
             style="fill:#ffffff" />
          <path
             id="path96"
             d="M 77.4,22.6 H 91.7 V 17.3 H 77 c -6.8,0 -12.4,5.5 -12.4,12.4 0,6.8 5.5,12.4 12.4,12.4 H 91.7 V 27 H 75.8 v 5.3 h 10.4 v 4.4 h -8.8 c -3.9,0 -7.1,-3.2 -7.1,-7.1 0,-3.9 3.2,-7 7.1,-7 z"
             class="st4"
             inkscape:connector-curvature="0"
             style="fill:#ffffff" />
          <g
             id="g108">
            <path
               id="path98"
               d="m 136.2,39 h -0.9 c -0.8,0 -1.5,0.7 -1.5,1.5 0,0.8 0.7,1.5 1.5,1.5 h 0.9 c 0.8,0 1.5,-0.7 1.5,-1.5 0,-0.8 -0.6,-1.5 -1.5,-1.5 z m 0,2.4 h -0.8 c -0.5,0 -0.9,-0.4 -0.9,-0.9 0,-0.5 0.4,-0.9 0.9,-0.9 h 0.8 c 0.5,0 0.9,0.4 0.9,0.9 0,0.5 -0.4,0.9 -0.9,0.9 z"
               class="st4"
               inkscape:connector-curvature="0"
               style="fill:#ffffff" />
            <path
               id="path100"
               d="m 130.2,40.5 c 0,0.8 0.7,1.5 1.5,1.5 h 1.7 v -0.6 h -1.7 c -0.5,0 -0.9,-0.4 -0.9,-0.9 0,-0.5 0.4,-0.9 0.9,-0.9 h 1.7 V 39 h -1.7 c -0.8,0 -1.5,0.7 -1.5,1.5 z"
               class="st4"
               inkscape:connector-curvature="0"
               style="fill:#ffffff" />
            <polygon
               id="polygon102"
               points="137.8,42 138.5,42 139.4,39.7 140.1,41.7 140.8,41.7 141.5,39.7 142.3,42 143,42 141.9,39 141.1,39 140.4,40.8 139.8,39 138.9,39 "
               class="st4"
               style="fill:#ffffff" />
            <circle
               id="circle104"
               r="0.40000001"
               cy="41.599998"
               cx="129.5"
               class="st4"
               style="fill:#ffffff" />
            <path
               id="path106"
               d="m 140.7,20.1 c -0.4,-0.8 -1,-1.5 -1.7,-2.1 -0.8,-0.6 -1.8,-0.9 -2.9,-0.9 -1.1,0 -2,0.3 -2.8,0.9 -0.7,0.5 -1.3,1.3 -1.7,2.1 C 126.9,28.9 120,42 120,42 c 0,0 6.3,0 6.3,0 l 9.8,-18.7 4.6,8.8 h -7.1 l 2.5,4.8 h 7.1 l 2.7,5.2 c 0,0 6.3,0 6.3,0 0,-0.1 -6.9,-13.2 -11.5,-22 z"
               class="st4"
               inkscape:connector-curvature="0"
               style="fill:#ffffff" />
          </g>
        </g>
        <g
           id="g118">
          <polygon
             id="polygon112"
             points="219.6,33.2 219.6,42 225.3,42 225.3,33.2 236.9,17.3 230.1,17.3 222.5,28 214.8,17.3 208.1,17.3 "
             class="st4"
             style="fill:#ffffff" />
          <path
             id="path114"
             d="m 178.2,17.3 h -16.9 v 5.3 H 178 c 1.2,0 2.2,0.9 2.3,2.2 0,1.2 -1,2.3 -2.2,2.3 h -9.8 c -3.9,0 -7.1,3.2 -7.1,7.1 v 8 h 5.6 v -7.4 c 0,-1.3 1,-2.3 2.3,-2.3 h 9.2 c 4.2,0 7.5,-3.4 7.5,-7.5 -0.1,-4.4 -3.5,-7.7 -7.6,-7.7 z"
             class="st4"
             inkscape:connector-curvature="0"
             style="fill:#ffffff" />
          <path
             id="path116"
             d="m 203.1,20.1 c -0.4,-0.8 -1,-1.5 -1.7,-2.1 -0.8,-0.6 -1.8,-0.9 -2.9,-0.9 -1.1,0 -2,0.3 -2.8,0.9 -0.7,0.5 -1.3,1.3 -1.7,2.1 -4.6,8.8 -11.6,21.9 -11.6,21.9 0,0 6.3,0 6.3,0 l 9.8,-18.7 4.6,8.8 H 196 l 2.5,4.8 h 7.1 l 2.7,5.2 c 0,0 6.3,0 6.3,0 0,-0.1 -6.8,-13.2 -11.5,-22 z"
             class="st4"
             inkscape:connector-curvature="0"
             style="fill:#ffffff" />
        </g>
      </g>
    </g>
  </g>
  <style
     id="style84"
     type="text/css">
	.st0{fill:#E74011;}
	.st1{fill:#F68B00;}
	.st2{fill:#056AAB;}
	.st3{fill:#26A2DC;}
	.st4{fill:#FFFFFF;}
</style>
</svg>
