<?xml version="1.0" encoding="UTF-8"?>
<!DOCTYPE svg PUBLIC "-//W3C//DTD SVG 1.1//EN" "http://www.w3.org/Graphics/SVG/1.1/DTD/svg11.dtd">
<!-- Creator: CorelDRAW 2017 -->
<svg xmlns="http://www.w3.org/2000/svg" xml:space="preserve" width="80.472mm" height="133.408mm" version="1.1" style="shape-rendering:geometricPrecision; text-rendering:geometricPrecision; image-rendering:optimizeQuality; fill-rule:evenodd; clip-rule:evenodd"
viewBox="0 0 8047 13341"
  >
 <defs>
  <style type="text/css">
   <![CDATA[
    .fil0 {fill:#fff;fill-rule:nonzero}
   ]]>
  </style>
 </defs>
 <g id="">
  <metadata id="CorelCorpID_0Corel-Layer"/>
  <path class="fil0" d="M36000 -11214c-49,-1033 -102,-2066 -159,-3099 -6,-154 -13,-308 -19,-463 72,1186 132,2374 179,3561zm141 4415c-1,49 -7,92 -21,122 0,28 1,57 1,85 -57,-47 -113,-94 -170,-141 -41,-73 -26,-240 -33,-326 -4,-47 -7,-93 -11,-140 18,131 36,262 55,392 14,93 151,83 179,7zm-408 -3708c-15,-451 -28,-902 -37,-1353 -9,-489 -13,-978 -14,-1467 58,1389 116,2778 175,4167 -47,-449 -88,-898 -125,-1347zm-123 1551c26,493 56,985 90,1477 1,15 2,33 3,53 -39,-510 -70,-1019 -93,-1529zm1572 -6722c-255,-608 -531,-1206 -822,-1797 -170,-505 -343,-1008 -520,-1510 -51,-144 -256,-87 -228,63 8,43 18,85 26,127 -2,6 -3,12 -2,19 -9,13 -15,28 -17,47 -11,22 -22,43 -33,65 -11,-7 -23,-11 -36,-15 -3,-7 -7,-15 -10,-22 2,-4 4,-9 6,-13 63,-127 -124,-239 -191,-112 -3,7 -7,13 -10,20 -31,24 -53,60 -53,102 -91,173 -181,346 -270,520 -189,315 -363,638 -519,969 -325,602 -622,1218 -855,1866 -43,118 148,199 204,86 25,-51 50,-102 75,-153 0,0 0,1 0,1 -8,32 -16,64 -23,96 -26,120 153,214 211,89 45,-98 90,-197 135,-295 18,-9 35,-24 47,-48 42,-86 85,-171 128,-257 4,8 6,17 11,25 16,29 52,41 83,34 13,-3 26,-6 40,-9 92,-22 52,-156 -39,-140 105,-19 253,-560 298,-663 55,-125 110,-250 166,-375 138,-278 275,-558 412,-836 -10,253 -20,506 -27,760 -250,3542 -148,7096 245,10628 13,112 189,114 178,0 -13,-131 -24,-262 -36,-392 59,327 193,608 510,460 29,-14 47,-51 47,-82 -41,-3704 -218,-7404 -502,-11097 329,730 660,1460 991,2189 46,101 186,65 223,-19 63,-19 113,-78 85,-151 -4,-10 -7,-19 -11,-29 64,-17 115,-72 83,-148z"/>
  <path class="fil0" d="M-10409 -16400c-20,-109 -44,-217 -72,-325 199,329 352,683 437,1068 9,39 15,79 22,119 -92,-310 -226,-607 -387,-863zm77 621c53,162 94,329 119,506 35,251 21,483 -11,712 -1,-19 -1,-39 -3,-58 -17,-219 -50,-436 -94,-650 4,-171 0,-341 -11,-510zm-222 3419c138,-392 239,-795 294,-1205 34,1 70,-14 96,-55 19,-30 38,-61 55,-93 -106,461 -263,919 -445,1352zm-822 -5210c-118,-206 -249,-403 -394,-587 200,165 393,340 574,524 156,276 276,570 366,874 0,4 2,9 4,13 12,42 26,83 37,125 -165,-334 -363,-652 -587,-950zm302 5683c-418,958 -1053,1928 -1848,2656 89,-98 177,-197 261,-300 665,-809 1288,-1831 1723,-2926 -38,192 -84,382 -136,569zm-4818 4568c-38,6 -75,9 -113,14 555,-137 1078,-363 1562,-657 194,-71 380,-154 559,-248 1,47 23,95 58,127 -610,379 -1302,646 -2066,765zm-1859 -478c618,113 1243,169 1875,127 -51,15 -102,30 -154,44 -561,141 -1148,187 -1721,128 -47,-5 -91,-8 -131,-10 -67,-2 -176,-10 -241,2 -177,32 -236,202 -59,299 94,52 314,116 431,136 329,68 667,105 1008,112 1646,30 3221,-722 4351,-1899 328,-342 614,-716 859,-1113 314,-411 593,-851 832,-1314 692,-1337 1349,-3097 941,-4607 -201,-743 -633,-1374 -1166,-1920 -229,-395 -528,-765 -908,-1100 -827,-727 -1817,-1126 -2858,-1288 -712,-220 -1455,-283 -2203,-55 -28,8 -47,23 -64,40 -95,12 -189,25 -284,40 765,-210 1528,-428 2289,-655 56,-17 89,-51 104,-90 21,-6 43,-13 64,-19 195,-59 114,-349 -84,-304 -3,1 -6,1 -9,2 15,-34 16,-72 6,-108 23,-102 -48,-218 -182,-181 -814,224 -1621,467 -2425,721 -155,46 -309,93 -463,140 -179,43 -357,87 -536,131 -22,0 -43,5 -63,15 -53,13 -105,26 -158,39 -10,2 -19,6 -27,10 -143,-66 -269,99 -204,210 -19,61 -6,130 63,164 416,201 835,395 1255,587 24,13 47,26 70,39 720,515 1475,975 2270,1375 127,64 232,-41 224,-147 136,21 268,-150 142,-259 -76,-66 -155,-129 -234,-193 -5,-43 -26,-85 -67,-111 -86,-57 -174,-111 -261,-167 -1,0 -1,-1 -2,-1 -2,-1 -4,-2 -6,-4 -123,-79 -246,-159 -370,-237 -294,-199 -596,-385 -904,-562 693,37 1397,101 2073,260 1075,372 2061,977 2817,1855 48,56 94,113 140,170 540,901 807,1994 897,3015 14,163 21,327 24,491 -480,2228 -1873,4650 -3882,5814 -1009,316 -2047,288 -3070,101 -123,-11 -173,27 -181,110 1,74 58,140 181,174zm3172 -12025c-109,-37 -219,-72 -330,-105 82,11 163,24 245,37 122,41 242,88 361,138 -91,-25 -184,-49 -276,-71z"/>
  <path class="fil0" d="M48327 -11810c-94,83 -194,158 -298,228 -8,-22 -16,-44 -24,-66 396,-316 713,-731 919,-1213 186,-435 281,-868 301,-1292 22,877 -205,1735 -899,2343zm-198 -5240c-388,-586 -877,-1100 -1426,-1489 1066,588 1828,1592 2222,2744 -191,-453 -463,-876 -796,-1256zm-1913 -1405c-19,-29 -39,-58 -58,-87 128,75 252,154 372,239 -103,-54 -209,-105 -315,-152zm-199 -299c-61,-92 -124,-184 -186,-275 31,6 61,12 91,18 -22,59 -3,134 76,161 23,8 45,16 68,25 -23,19 -39,44 -49,71zm1788 9270c-24,121 -52,239 -83,356 109,-623 116,-1271 41,-1826 -7,-50 -16,-98 -25,-146 41,-20 82,-40 123,-61 104,526 61,1093 -56,1677zm-141 -1927c38,-22 75,-46 112,-70 5,15 11,30 16,46 -38,21 -78,39 -117,59 -3,-12 -7,-23 -11,-35zm-116 -321c-278,-638 -780,-1126 -1426,-1454 361,172 690,397 930,613 267,241 461,504 598,784 -34,19 -68,39 -102,57zm-2836 -155c-164,-83 -330,-186 -461,-320 -172,-399 -20,-820 516,-935 880,-188 1708,560 2098,1275 55,100 104,209 150,322 -764,177 -1618,6 -2302,-342zm1134 894c-476,-21 -990,-125 -1401,-376 -394,-242 -708,-690 -683,-1136 44,168 128,317 240,448 51,104 119,206 208,304 466,517 1161,752 1851,762 -71,1 -143,0 -214,-3zm888 -7854c486,98 971,196 1457,293 165,33 246,-184 131,-263 24,-63 11,-139 -55,-175 -17,-51 -59,-95 -124,-104 -230,-30 -459,-67 -687,-110 -114,-30 -229,-58 -345,-81 -272,-67 -546,-128 -822,-179 -315,-81 -628,-168 -939,-258 -1,-2 -2,-3 -3,-5 -49,-68 -126,-76 -186,-50 -15,-4 -31,-9 -46,-13 -35,-10 -69,4 -93,29 -86,-136 -284,-39 -260,98 -4,16 -6,32 -5,50 -7,31 -4,65 17,97 24,39 47,77 71,116 -141,32 -123,266 42,282 36,3 71,7 107,10 393,802 786,1605 1179,2407 35,71 112,81 174,55 16,30 31,60 46,90 82,156 309,19 234,-137 -13,-28 -28,-56 -42,-85 35,7 71,-5 98,-28 85,125 317,34 260,-121 -85,-229 -186,-453 -297,-672 27,-113 -15,-238 -84,-362 465,260 895,586 1257,970 533,776 860,1693 906,2650 30,624 -42,1286 -342,1819 -144,216 -313,412 -504,582 -97,-191 -220,-374 -373,-548 -712,-812 -2115,-1572 -3194,-1103 -996,432 -1039,1638 -236,2293 833,680 2149,710 3136,408 310,1450 -9,3367 -1328,3983 -1025,478 -2633,-377 -3310,-808 -181,-115 -326,63 -136,222 428,314 1029,632 1563,827 -1124,-329 -1701,-767 -1875,-915 -17,-14 -27,-24 -42,-30 -17,-8 -40,-13 -58,-4 -25,13 -29,49 -2,84 19,25 33,38 63,61 -39,-21 -78,-2 -79,30 0,25 17,35 34,49 16,12 30,26 46,36 334,216 519,366 1196,654 858,364 1704,447 2477,205 1146,-409 1882,-1327 2195,-2485 207,-768 321,-1576 152,-2319 579,-368 1039,-902 1255,-1576 681,-2126 -571,-5005 -2628,-5968z"/>
  <path class="fil0" d="M876 -8870c8,-54 14,-108 21,-162 63,-7 120,-52 117,-134 -7,-254 -20,-509 -38,-764 39,-774 2,-1549 -110,-2313 34,147 66,295 95,444 102,538 164,1083 183,1631 13,408 2,959 -268,1298zm-1472 -6884c116,185 227,374 332,567 264,597 477,1217 637,1850 -247,-839 -567,-1652 -969,-2417zm-247 472c-580,-1078 -1306,-2080 -2161,-2957 -85,-87 -172,-174 -260,-260 909,753 1681,1676 2269,2705 475,832 826,1715 1069,2628 -246,-729 -553,-1438 -917,-2116zm-3129 -4294c709,362 1343,901 1894,1521 -576,-571 -1210,-1082 -1894,-1521zm-748 -223c-113,-59 -228,-117 -345,-172 128,27 254,62 377,101 -16,21 -28,45 -32,71zm995 -996c-97,-7 -194,-15 -292,-22 147,-1 294,-3 440,-6 6,14 14,26 25,36 -58,-3 -116,-5 -173,-8zm5075 9724c-139,-1181 -466,-2332 -953,-3416 -130,-289 -272,-572 -424,-849 -73,-165 -150,-328 -231,-489 -1034,-2060 -2916,-4342 -5381,-4499 243,-1 486,-14 728,-21 733,-21 1466,-52 2198,-89 185,-9 183,-271 0,-285 -95,-7 -190,-14 -285,-21 -15,-7 -32,-12 -51,-13 -81,-6 -162,-11 -243,-16 93,-8 186,-16 280,-27 175,-21 190,-247 32,-289 -23,-21 -54,-36 -95,-37 -127,-3 -253,-4 -380,-6 -1150,-90 -2301,-128 -3454,-107 -51,1 -87,21 -110,49 -71,0 -140,49 -149,114 -116,-62 -286,59 -193,185 563,769 1135,1536 1802,2211 339,438 696,863 1073,1270 109,118 279,-56 175,-175 -38,-43 -75,-86 -112,-129 80,31 155,-35 171,-113 66,63 130,127 196,191 132,127 318,-64 199,-199 -619,-707 -1238,-1414 -1856,-2122 49,19 97,38 146,58 967,461 1788,1215 2511,1994 802,864 1485,1837 2031,2882 945,1810 1461,3810 1515,5843 -9,228 -22,455 -41,682 -3,34 13,68 38,94 -2,67 -3,135 -6,202 -7,155 243,192 274,37 20,-99 38,-197 56,-296 804,-507 636,-1799 540,-2612z"/>
  <path class="fil0" d="M4484 2715c-208,142 -411,292 -609,449 255,-222 524,-424 807,-605 -67,51 -133,103 -198,156zm-1537 999c919,-1075 2124,-1900 3492,-2248 -59,31 -118,63 -177,94 -1299,365 -2428,1143 -3316,2154zm-1027 2033c56,-115 115,-230 177,-343 144,-199 296,-393 454,-581 -222,301 -432,610 -631,924zm5599 -4205c19,7 38,13 57,20 -48,34 -94,68 -141,103 29,-40 57,-81 85,-122zm-7126 8813c5,756 154,1504 492,2205 2,14 5,27 8,41 -400,-702 -533,-1465 -500,-2245zm7548 -8980c-17,-6 -35,-12 -52,-18 97,-49 109,-225 -25,-275 -30,-11 -60,-22 -90,-33 -23,-93 -145,-147 -231,-85 -501,-185 -1002,-369 -1503,-552 -170,-70 -341,-140 -511,-210 -27,-11 -52,-11 -75,-5 -172,-63 -345,-126 -517,-189 -111,-41 -180,54 -173,146 -19,-3 -37,-5 -56,-8 0,0 0,0 0,0l0 0c-13,-2 -26,-4 -39,-5 -59,-6 -99,19 -120,57 -4,-1 -8,-2 -12,-3 -185,-54 -258,225 -79,287 370,128 740,256 1110,384 36,37 50,40 154,90 33,16 63,9 85,-8 226,78 452,156 678,234 -2040,484 -3749,1966 -4739,3812 -257,479 -464,977 -627,1487 -1077,2032 -1591,4602 -550,6701 36,72 165,20 133,-56 -153,-363 -264,-736 -340,-1116 146,446 371,877 696,1284 76,96 204,16 220,-83 103,80 271,-32 195,-165 -153,-267 -277,-546 -375,-834 -190,-1188 -260,-2411 -139,-3608 48,-248 105,-494 169,-737 215,-574 490,-1128 802,-1641 632,-1040 1385,-2053 2258,-2903 135,-132 276,-256 420,-375 490,-337 1011,-630 1554,-876 -327,341 -627,704 -910,1082 -60,81 -5,177 75,212 -46,128 146,231 255,140 115,-96 229,-192 343,-288 50,55 138,76 209,7 114,-111 223,-227 330,-345 463,-463 966,-877 1516,-1240 109,-72 87,-228 -35,-271z"/>
  <path class="fil0" d="M55999 -12986c-160,349 -365,674 -589,988 227,-364 438,-754 612,-1159 -6,57 -14,114 -23,171zm-2630 3259c231,-694 618,-1347 1066,-1900 254,-314 528,-601 786,-893 -634,918 -1445,1763 -1852,2792zm1139 3910c38,39 77,78 117,115 69,72 142,141 218,204 -837,-419 -1442,-1282 -1632,-2208 -7,-33 -12,-65 -18,-98 176,792 650,1512 1315,1987zm2967 -10890c-13,-12 -26,-24 -39,-35 15,-48 7,-103 -38,-147 -736,-740 -1473,-1481 -2209,-2221 -6,-48 -12,-97 -15,-147 -10,-162 -265,-219 -300,-41 -14,74 -30,149 -45,224 -117,-4 -212,143 -116,261 16,19 32,38 48,57 -244,1118 -532,2286 -338,3411 18,104 104,127 180,100 1,6 2,12 3,18 -4,62 -9,123 -13,185 -10,152 173,172 250,75 57,4 118,-21 148,-76 85,37 202,-7 213,-132 47,-497 86,-996 119,-1494 277,689 537,1466 656,2234 -50,302 -147,598 -298,876 -361,665 -977,1147 -1448,1728 -398,492 -737,1029 -982,1614 -474,1133 -556,2422 27,3531 510,970 1444,1683 2557,1738 175,9 177,-226 38,-282 -219,-90 -426,-200 -620,-330 42,-62 40,-148 -47,-186 -202,-90 -390,-200 -562,-327 -16,-17 -31,-33 -47,-50 -81,-115 -158,-233 -230,-353 -334,-556 -634,-1173 -628,-1835 8,-931 510,-1717 1068,-2447 1,-1 2,-1 3,-1 788,-471 1258,-1269 1447,-2142 245,-559 385,-1154 376,-1797 -6,-455 -81,-900 -218,-1324 -118,-510 -364,-999 -776,-1440 -27,-29 -57,-42 -86,-44 -16,-54 -40,-135 -56,-197 145,192 306,376 473,557 283,329 578,647 888,952 95,94 216,31 248,-65 11,2 20,5 31,7 117,18 232,-97 187,-202 136,35 278,-136 152,-252z"/>
 </g>
</svg>
